<?xml version="1.0" encoding="UTF-8" standalone="no"?><!DOCTYPE svg PUBLIC "-//W3C//DTD SVG 1.1//EN" "http://www.w3.org/Graphics/SVG/1.1/DTD/svg11.dtd"><svg width="100%" height="100%" viewBox="0 0 400 400" version="1.1" xmlns="http://www.w3.org/2000/svg" xmlns:xlink="http://www.w3.org/1999/xlink" xml:space="preserve" xmlns:serif="http://www.serif.com/" style="fill-rule:evenodd;clip-rule:evenodd;stroke-linecap:round;stroke-linejoin:round;stroke-miterlimit:1.5;"><g><ellipse cx="209.652" cy="238.189" rx="21.875" ry="22.917" style="fill:#ebebeb;fill-opacity:0;stroke:#ffc125;stroke-width:12.5px;"/><path d="M108.277,298.605c0,0 10.417,9.167 29.583,14.583l-11.667,13.75c0,0 25,5.833 34.583,6.667l-4.583,16.667c0,0 20.417,0.833 30.833,-2.5l-0.833,12.083c0,0 18.333,-7.083 26.25,-12.917l6.667,17.5c0,0 18.333,-11.667 22.917,-18.333l9.167,12.917c0,0 14.097,-18.75 15.764,-26.667l12.153,10.833c0,0 9.583,-17.667 7.083,-27.25l15.833,5.583c0,0 12.833,-26.25 9.083,-27.083" style="fill:#ebebeb;fill-opacity:0;stroke:#ffc125;stroke-width:12.5px;"/><path d="M45.694,275.245l0.417,-59.973l25,-0.833c0,0 -5.417,20.417 -2.083,25.417l53.333,-0.833c0,0 3.486,-86.725 87.5,-86.25c73.75,0.417 82.917,69.583 82.917,69.583l53.75,0c0,0 -14.16,-123.369 -132.705,-122.917c-124.795,0.477 -142.712,115 -142.712,115" style="fill:#ebebeb;fill-opacity:0;stroke:#ffc125;stroke-width:12.5px;"/><path d="M23.716,275.689c1.19,-0.601 357.298,-0.417 357.298,-0.417c0,0 13.954,7.5 1.269,19.167l-358.144,-1.25c-0,0 -16.914,-9.167 -0.423,-17.5Z" style="fill:#ebebeb;fill-opacity:0;stroke:#ffc125;stroke-width:12.5px;"/><path d="M86.61,170.189c0,0 -27.583,-12.833 -31.333,-18.667c-3.75,-5.833 -9.01,-14.361 17.083,-32.917c18.75,-13.333 47.5,1.667 49.167,8.333" style="fill:#ebebeb;fill-opacity:0;stroke:#ffc125;stroke-width:12.5px;"/><path d="M162.777,105.689c0,0 56.956,-58.984 76.667,-67.5c13.333,-5.76 38.75,6.74 46.667,15.906c0,0 92.917,75.417 97.917,107.917c5,32.5 -7.002,62.347 -33.333,62.083c0,0 -5,-13.479 -15.417,-45.906l6.25,-15.344c0,0 11,-10.5 -21.917,-42.083c-33.276,-31.928 -61.833,-62.574 -93.917,-21.324" style="fill:#ebebeb;fill-opacity:0;stroke:#ffc125;stroke-width:12.5px;"/><path d="M292.089,224.097c0,0 -17.667,18.082 4,22.415l-2,28.734l35,0l-2.833,-28.484l-23.833,0.75c0,0 14.771,5.837 44.104,-19.748" style="fill:#ebebeb;fill-opacity:0;stroke:#ffc125;stroke-width:12.5px;"/><path d="M105.173,242.762c0,0 2.5,17.917 6.25,22.5c0,0 -8.75,-2.083 -15,5.833" style="fill:#ebebeb;fill-opacity:0;stroke:#ffc125;stroke-width:12.5px;"/></g></svg>