<?xml version="1.0" encoding="UTF-8" standalone="no"?><!DOCTYPE svg PUBLIC "-//W3C//DTD SVG 1.1//EN" "http://www.w3.org/Graphics/SVG/1.1/DTD/svg11.dtd"><svg width="100%" height="100%" viewBox="0 0 400 400" version="1.1" xmlns="http://www.w3.org/2000/svg" xmlns:xlink="http://www.w3.org/1999/xlink" xml:space="preserve" xmlns:serif="http://www.serif.com/" style="fill-rule:evenodd;clip-rule:evenodd;stroke-linecap:round;stroke-linejoin:round;stroke-miterlimit:1.5;"><g><path d="M23.033,14.911l-0.521,364.583l361.458,-1.042l-360.937,-363.542Z" style="fill:#ebebeb;fill-opacity:0;stroke:#ffc125;stroke-width:12.5px;"/><path d="M44.388,64.911l14.513,-13.874" style="fill:none;stroke:#ffc125;stroke-width:12.5px;"/><path d="M69.388,89.911l14.513,-13.874" style="fill:none;stroke:#ffc125;stroke-width:12.5px;"/><path d="M91.321,111.845l14.513,-13.874" style="fill:none;stroke:#ffc125;stroke-width:12.5px;"/><path d="M114.188,135.711l14.513,-13.874" style="fill:none;stroke:#ffc125;stroke-width:12.5px;"/><path d="M139.188,160.711l14.513,-13.874" style="fill:none;stroke:#ffc125;stroke-width:12.5px;"/><path d="M161.121,182.645l14.513,-13.874" style="fill:none;stroke:#ffc125;stroke-width:12.5px;"/><path d="M207.346,228.87l14.513,-13.874" style="fill:none;stroke:#ffc125;stroke-width:12.5px;"/><path d="M232.346,254.87l14.513,-13.874" style="fill:none;stroke:#ffc125;stroke-width:12.5px;"/><path d="M252.937,278.464l14.197,-14.197" style="fill:none;stroke:#ffc125;stroke-width:12.5px;"/><path d="M278.679,303.536l14.513,-13.874" style="fill:none;stroke:#ffc125;stroke-width:12.5px;"/><path d="M300.499,325.583l14.513,-13.874" style="fill:none;stroke:#ffc125;stroke-width:12.5px;"/><path d="M183.627,208.252l190.104,-191.06l0.521,356.25" style="fill:#ebebeb;fill-opacity:0;stroke:#ffc125;stroke-width:12.5px;"/><path d="M69.388,147.203l0.521,186.979l187.5,0l-188.021,-186.979Z" style="fill:#ebebeb;fill-opacity:0;stroke:#ffc125;stroke-width:12.5px;"/><path d="M231.888,223.245l104.687,-103.125l-0.333,209.062" style="fill:#ebebeb;fill-opacity:0;stroke:#ffc125;stroke-width:12.5px;"/></g></svg>