<?xml version="1.0" encoding="UTF-8" standalone="no"?><!DOCTYPE svg PUBLIC "-//W3C//DTD SVG 1.1//EN" "http://www.w3.org/Graphics/SVG/1.1/DTD/svg11.dtd"><svg width="100%" height="100%" viewBox="0 0 400 400" version="1.1" xmlns="http://www.w3.org/2000/svg" xmlns:xlink="http://www.w3.org/1999/xlink" xml:space="preserve" xmlns:serif="http://www.serif.com/" style="fill-rule:evenodd;clip-rule:evenodd;stroke-linecap:round;stroke-linejoin:round;stroke-miterlimit:1.5;"><g><path d="M274.915,183.076c0,0 15.9,-8.861 7.718,-34.667c-7.8,-24.6 -20.674,-40.946 -20.674,-40.946c0,0 -11.26,-2.993 -19.26,5.341" style="fill:#ebebeb;fill-opacity:0;stroke:#ffc125;stroke-width:12.5px;"/><ellipse cx="150.989" cy="201.872" rx="72.656" ry="72.917" style="fill:#ebebeb;fill-opacity:0;stroke:#ffc125;stroke-width:12.5px;"/><path d="M51.608,320.101l192.708,0.651c0,0 28.646,1.953 28.646,-23.437c0,-34.511 1.953,-116.536 1.953,-116.536c0,0 -14.974,-104.167 -117.838,-104.818c-100.267,-0.635 -129.557,65.104 -131.51,104.167c0,0 1.302,118.489 1.302,119.14c0,0.651 0,16.927 24.74,20.833Z" style="fill:#ebebeb;fill-opacity:0;stroke:#ffc125;stroke-width:12.5px;"/><path d="M376.347,280.127l0.521,53.125l-0.122,-12.465l-124.357,0c0,0 10.976,-0.168 15.859,-10.16c7.752,-15.862 6.667,-15.917 6.667,-15.917l101.58,0.509" style="fill:#ebebeb;fill-opacity:0;stroke:#ffc125;stroke-width:12.5px;"/></g><path d="M297.608,299.231l-2.917,15.833" style="fill:none;stroke:#ffc125;stroke-width:4.17px;"/><path d="M337.482,299.231l-2.917,15.833" style="fill:none;stroke:#ffc125;stroke-width:4.17px;"/><path d="M356.895,299.231l-2.917,15.833" style="fill:none;stroke:#ffc125;stroke-width:4.17px;"/><path d="M317.545,299.231l-2.917,15.833" style="fill:none;stroke:#ffc125;stroke-width:4.17px;"/></svg>